# xmcd
#
# Track frame offsets: 
#        182
#        11422
#        28042
#        41540
#        55900
#        71497
#        86095
#        101717
#        118072
#        137462
#
# Disc length: 2149 seconds
#
# Revision: 3
# Processed by: cddbd v1.5PL3 Copyright (c) Steve Scherf et al.
# Submitted via: ExactAudioCopy v0.95a3
#
DISCID=8008630a
DTITLE=Dan Seals - Fired Up
DYEAR=1994
DGENRE=Country
TTITLE0=All Fired Up
TTITLE1=Love Thing
TTITLE2=A Rose From Another Garden
TTITLE3=Hillbilly Fever
TTITLE4=When
TTITLE5=Call Me Up
TTITLE6=Jayney
TTITLE7=A Good Place To Be
TTITLE8=Gentleman Of Leisure
TTITLE9=Still Reelin' (From Those Rock 'N' Roll Days)
EXTD=
EXTT0=
EXTT1=
EXTT2=
EXTT3=
EXTT4=
EXTT5=
EXTT6=
EXTT7=
EXTT8=
EXTT9=
PLAYORDER=
